<svg width="103" height="35" viewBox="0 0 103 35" fill="none" xmlns="http://www.w3.org/2000/svg">
<mask id="mask0_2275_11019" style="mask-type:alpha" maskUnits="userSpaceOnUse" x="0" y="0" width="103" height="35">
<path fill-rule="evenodd" clip-rule="evenodd" d="M0 0H102.891V34.2421H0V0Z" fill="white"/>
</mask>
<g mask="url(#mask0_2275_11019)">
<path fill-rule="evenodd" clip-rule="evenodd" d="M28.4182 -9.15527e-05H4.02826C1.80309 -9.15527e-05 0 1.80346 0 4.02817V28.4182C0 30.6429 1.80309 32.4464 4.02826 32.4464H28.4182C30.643 32.4464 32.4465 30.6429 32.4465 28.4182V4.02817C32.4465 1.80346 30.643 -9.15527e-05 28.4182 -9.15527e-05Z" fill="#F26526"/>
<path fill-rule="evenodd" clip-rule="evenodd" d="M46.5902 15.2191C48.8355 15.2191 50.2648 14.5394 50.2648 12.1911C50.2648 9.87734 49.0399 9.23069 46.8965 9.23069H45.2629V15.2191H46.5902ZM45.2629 27.2648H39.4104V4.63707H47.7126C53.0549 4.63707 56.2872 7.1208 56.2872 11.8168C56.2872 17.0906 52.4426 19.7448 46.9985 19.7448H45.2629V27.2648Z" fill="#3575AB"/>
<path fill-rule="evenodd" clip-rule="evenodd" d="M63.8096 27.2646H58.1271V13.1779L57.6848 9.84312H62.3124L62.7547 12.2589C63.6737 10.1155 65.3748 9.33287 66.8376 9.33287C67.6886 9.33287 68.7776 9.53679 69.6621 9.97906L68.7436 14.7091C68.029 14.3348 67.1779 14.1304 66.2934 14.1304C64.8301 14.1304 63.8436 15.0494 63.8096 16.6146V27.2646Z" fill="#3575AB"/>
<path fill-rule="evenodd" clip-rule="evenodd" d="M78.1359 13.3138C76.4348 13.3138 75.3119 14.9814 75.2095 17.3288C77.047 17.2273 79.4632 16.3762 79.4632 14.7091C79.4632 13.8585 78.9525 13.3138 78.1359 13.3138ZM84.3967 14.6411C84.3967 19.5746 78.8166 20.5616 75.4818 20.7659C75.6182 22.2971 76.7751 23.556 78.8505 23.556C80.4837 23.556 81.9814 22.8409 83.0699 22.1263L84.5671 25.8698C84.3967 26.0397 81.8445 27.8093 78.034 27.8093C72.0451 27.8093 69.6978 24.2022 69.6978 19.0304C69.6978 14.0964 72.6238 9.33287 78.4423 9.33287C82.0149 9.33287 84.3967 11.068 84.3967 14.6411Z" fill="#3575AB"/>
<path fill-rule="evenodd" clip-rule="evenodd" d="M96.5041 27.6068H91.7897L85.4026 9.80412H89.074C90.3269 9.80412 91.4374 10.612 91.8236 11.8042L94.1636 19.0364L97.1176 9.80412H102.891L96.5041 27.6068Z" fill="#3575AB"/>
<path fill-rule="evenodd" clip-rule="evenodd" d="M28.8387 32.4466H16.0466V12.7917C16.0466 5.72677 21.7737 0.000137329 28.8387 0.000137329C30.831 0.000137329 32.4462 1.61493 32.4462 3.6077V28.8391C32.4462 30.8309 30.831 32.4466 28.8387 32.4466Z" fill="#D65A29"/>
<path fill-rule="evenodd" clip-rule="evenodd" d="M20.8852 26.791L17.6956 29.8286C17.104 30.3921 16.1488 30.3746 15.5793 29.7905L12.6611 26.7978C12.278 26.4047 12.0952 25.8683 12.1623 25.3328L14.7333 10.9843C14.8219 10.4184 15.3258 9.99959 15.9187 9.99959H17.8582C18.4589 9.99959 18.9664 10.429 19.0463 11.0036L21.4363 25.3089C21.4951 25.8582 21.2926 26.4033 20.8852 26.791Z" fill="#D45119"/>
<path fill-rule="evenodd" clip-rule="evenodd" d="M20.3108 26.4645L17.1211 29.5021C16.5296 30.0651 15.5743 30.0482 15.0043 29.464L12.0866 26.4714C11.7036 26.0782 11.5208 25.5413 11.5878 25.0058L14.1588 10.6573C14.2475 10.0919 14.7513 9.6731 15.3442 9.6731H17.2837C17.8844 9.6731 18.3919 10.1021 18.4718 10.6771L20.8619 24.9819C20.9207 25.5317 20.7181 26.0768 20.3108 26.4645Z" fill="#E4E3E4"/>
<path fill-rule="evenodd" clip-rule="evenodd" d="M18.4878 10.7569H16.7683L17.3589 9.46863C17.3805 9.42224 17.4411 9.40801 17.4806 9.44153L18.0318 9.90034C18.1135 9.96969 18.1787 10.0574 18.2219 10.1552L18.4878 10.7569Z" fill="#E4E3E4"/>
<path fill-rule="evenodd" clip-rule="evenodd" d="M19.7365 25.9747L16.5469 29.0119C15.9554 29.5754 14.9996 29.5584 14.4301 28.9742L11.5119 25.9811C11.1294 25.5885 10.9466 25.0516 11.0136 24.5161L13.5846 10.1676C13.6733 9.60173 14.1771 9.18288 14.77 9.18288H16.7095C17.3098 9.18288 17.8177 9.61229 17.8976 10.1868L20.2877 24.4922C20.3464 25.0419 20.1434 25.5866 19.7365 25.9747Z" fill="#FEFEFE"/>
<path fill-rule="evenodd" clip-rule="evenodd" d="M19.4611 3.95036H14.1074C13.5549 3.95036 13.1902 4.66085 13.4254 5.27949L14.3738 7.77425C14.6245 8.29965 15.0806 8.62206 15.5739 8.62206H18.0337C18.5338 8.62206 18.9959 8.29001 19.2439 7.7522L20.1482 5.26479C20.3728 4.64799 20.0076 3.95036 19.4611 3.95036Z" fill="#D45119"/>
<path fill-rule="evenodd" clip-rule="evenodd" d="M18.8869 3.62341H13.5332C12.9807 3.62341 12.616 4.33436 12.8512 4.95254L13.7996 7.44775C14.0503 7.97316 14.5064 8.29557 14.9996 8.29557H17.459C17.9596 8.29557 18.4217 7.96351 18.6697 7.42571L19.574 4.9383C19.7981 4.3215 19.4334 3.62341 18.8869 3.62341Z" fill="#E4E3E4"/>
<path fill-rule="evenodd" clip-rule="evenodd" d="M13.6614 7.49358L14.2947 8.03414L14.5358 7.28323L13.6614 7.49358Z" fill="#E4E3E4"/>
<path fill-rule="evenodd" clip-rule="evenodd" d="M19.0006 3.89117H18.2764L18.4679 3.21191C18.4775 3.17655 18.5189 3.16139 18.5496 3.1816L18.7972 3.30927C18.8119 3.31708 18.8266 3.32581 18.8404 3.33499C19.0603 3.48288 19.453 3.89117 19.5435 4.10152L19.0006 3.89117Z" fill="#E4E3E4"/>
<path fill-rule="evenodd" clip-rule="evenodd" d="M18.3124 3.13365H12.9583C12.4062 3.13365 12.0416 3.8446 12.2767 4.46278L13.2251 6.95799C13.4759 7.4834 13.9319 7.80535 14.4252 7.80535H16.8846C17.3847 7.80535 17.8467 7.47329 18.0947 6.93595L18.9995 4.44808C19.2236 3.83174 18.859 3.13365 18.3124 3.13365Z" fill="#FEFEFE"/>
</g>
</svg>
